<mxfile host="app.diagrams.net" modified="2023-06-13T22:00:56.991Z" agent="Mozilla/5.0 (Windows NT 10.0; Win64; x64) AppleWebKit/537.36 (KHTML, like Gecko) Chrome/114.0.0.0 Safari/537.36" etag="iqOjlmH8CkaqDgucK4Ub" version="21.3.8" type="device">
  <diagram id="R2lEEEUBdFMjLlhIrx00" name="Page-1">
    <mxGraphModel dx="1434" dy="756" grid="1" gridSize="10" guides="1" tooltips="1" connect="1" arrows="1" fold="1" page="1" pageScale="1" pageWidth="850" pageHeight="1100" math="0" shadow="0" extFonts="Permanent Marker^https://fonts.googleapis.com/css?family=Permanent+Marker">
      <root>
        <mxCell id="0" />
        <mxCell id="1" parent="0" />
        <mxCell id="fZF1Yw6p9Kvz5Fr0DQUm-17" style="edgeStyle=orthogonalEdgeStyle;rounded=0;orthogonalLoop=1;jettySize=auto;html=1;exitX=0.5;exitY=1;exitDx=0;exitDy=0;entryX=0;entryY=0.5;entryDx=0;entryDy=0;endArrow=none;endFill=0;" edge="1" parent="1" source="fZF1Yw6p9Kvz5Fr0DQUm-1" target="fZF1Yw6p9Kvz5Fr0DQUm-11">
          <mxGeometry relative="1" as="geometry" />
        </mxCell>
        <mxCell id="fZF1Yw6p9Kvz5Fr0DQUm-1" value="CLIENTE" style="rounded=0;whiteSpace=wrap;html=1;fillColor=#dae8fc;strokeColor=#6c8ebf;" vertex="1" parent="1">
          <mxGeometry x="160" y="490" width="120" height="60" as="geometry" />
        </mxCell>
        <mxCell id="fZF1Yw6p9Kvz5Fr0DQUm-48" style="edgeStyle=orthogonalEdgeStyle;rounded=0;orthogonalLoop=1;jettySize=auto;html=1;exitX=0.5;exitY=1;exitDx=0;exitDy=0;endArrow=none;endFill=0;" edge="1" parent="1" source="fZF1Yw6p9Kvz5Fr0DQUm-2" target="fZF1Yw6p9Kvz5Fr0DQUm-47">
          <mxGeometry relative="1" as="geometry" />
        </mxCell>
        <mxCell id="fZF1Yw6p9Kvz5Fr0DQUm-2" value="EMPLEADO" style="rounded=0;whiteSpace=wrap;html=1;fillColor=#dae8fc;strokeColor=#6c8ebf;" vertex="1" parent="1">
          <mxGeometry x="480" y="230" width="120" height="60" as="geometry" />
        </mxCell>
        <mxCell id="fZF1Yw6p9Kvz5Fr0DQUm-46" style="edgeStyle=orthogonalEdgeStyle;rounded=0;orthogonalLoop=1;jettySize=auto;html=1;exitX=0.5;exitY=1;exitDx=0;exitDy=0;entryX=0.5;entryY=0;entryDx=0;entryDy=0;endArrow=none;endFill=0;" edge="1" parent="1" source="fZF1Yw6p9Kvz5Fr0DQUm-3" target="fZF1Yw6p9Kvz5Fr0DQUm-42">
          <mxGeometry relative="1" as="geometry" />
        </mxCell>
        <mxCell id="fZF1Yw6p9Kvz5Fr0DQUm-49" style="edgeStyle=orthogonalEdgeStyle;rounded=0;orthogonalLoop=1;jettySize=auto;html=1;exitX=0.5;exitY=0;exitDx=0;exitDy=0;entryX=0.5;entryY=1;entryDx=0;entryDy=0;endArrow=none;endFill=0;" edge="1" parent="1" source="fZF1Yw6p9Kvz5Fr0DQUm-3" target="fZF1Yw6p9Kvz5Fr0DQUm-47">
          <mxGeometry relative="1" as="geometry">
            <Array as="points">
              <mxPoint x="540" y="400" />
              <mxPoint x="540" y="400" />
            </Array>
          </mxGeometry>
        </mxCell>
        <mxCell id="fZF1Yw6p9Kvz5Fr0DQUm-3" value="PROVEEDORES" style="rounded=0;whiteSpace=wrap;html=1;fillColor=#dae8fc;strokeColor=#6c8ebf;" vertex="1" parent="1">
          <mxGeometry x="480" y="470" width="120" height="60" as="geometry" />
        </mxCell>
        <mxCell id="fZF1Yw6p9Kvz5Fr0DQUm-15" style="edgeStyle=orthogonalEdgeStyle;rounded=0;orthogonalLoop=1;jettySize=auto;html=1;entryX=0.5;entryY=1;entryDx=0;entryDy=0;endArrow=none;endFill=0;" edge="1" parent="1" source="fZF1Yw6p9Kvz5Fr0DQUm-4" target="fZF1Yw6p9Kvz5Fr0DQUm-11">
          <mxGeometry relative="1" as="geometry" />
        </mxCell>
        <mxCell id="fZF1Yw6p9Kvz5Fr0DQUm-4" value="FACTURAS" style="rounded=0;whiteSpace=wrap;html=1;fillColor=#dae8fc;strokeColor=#6c8ebf;" vertex="1" parent="1">
          <mxGeometry x="305" y="750" width="120" height="60" as="geometry" />
        </mxCell>
        <mxCell id="fZF1Yw6p9Kvz5Fr0DQUm-8" style="edgeStyle=orthogonalEdgeStyle;rounded=0;orthogonalLoop=1;jettySize=auto;html=1;endArrow=none;endFill=0;exitX=0.5;exitY=1;exitDx=0;exitDy=0;" edge="1" parent="1" source="fZF1Yw6p9Kvz5Fr0DQUm-6" target="fZF1Yw6p9Kvz5Fr0DQUm-1">
          <mxGeometry relative="1" as="geometry">
            <mxPoint x="240" y="410" as="sourcePoint" />
          </mxGeometry>
        </mxCell>
        <mxCell id="fZF1Yw6p9Kvz5Fr0DQUm-28" style="edgeStyle=orthogonalEdgeStyle;rounded=0;orthogonalLoop=1;jettySize=auto;html=1;exitX=0.5;exitY=0;exitDx=0;exitDy=0;endArrow=none;endFill=0;entryX=0;entryY=0.5;entryDx=0;entryDy=0;" edge="1" parent="1" source="fZF1Yw6p9Kvz5Fr0DQUm-6" target="fZF1Yw6p9Kvz5Fr0DQUm-2">
          <mxGeometry relative="1" as="geometry" />
        </mxCell>
        <mxCell id="fZF1Yw6p9Kvz5Fr0DQUm-6" value="ATIENDE" style="rhombus;whiteSpace=wrap;html=1;fillColor=#fff2cc;strokeColor=#d6b656;" vertex="1" parent="1">
          <mxGeometry x="180" y="350" width="80" height="50" as="geometry" />
        </mxCell>
        <mxCell id="fZF1Yw6p9Kvz5Fr0DQUm-11" value="&lt;font style=&quot;font-size: 10px;&quot;&gt;FACTURACION&lt;/font&gt;" style="rhombus;whiteSpace=wrap;html=1;fillColor=#fff2cc;strokeColor=#d6b656;" vertex="1" parent="1">
          <mxGeometry x="320" y="600" width="90" height="60" as="geometry" />
        </mxCell>
        <mxCell id="fZF1Yw6p9Kvz5Fr0DQUm-12" value="1" style="text;html=1;strokeColor=none;fillColor=none;align=center;verticalAlign=middle;whiteSpace=wrap;rounded=0;" vertex="1" parent="1">
          <mxGeometry x="490" y="300" width="60" height="30" as="geometry" />
        </mxCell>
        <mxCell id="fZF1Yw6p9Kvz5Fr0DQUm-13" value="1" style="text;html=1;strokeColor=none;fillColor=none;align=center;verticalAlign=middle;whiteSpace=wrap;rounded=0;" vertex="1" parent="1">
          <mxGeometry x="180" y="460" width="60" height="30" as="geometry" />
        </mxCell>
        <mxCell id="fZF1Yw6p9Kvz5Fr0DQUm-18" value="1" style="text;html=1;strokeColor=none;fillColor=none;align=center;verticalAlign=middle;whiteSpace=wrap;rounded=0;" vertex="1" parent="1">
          <mxGeometry x="180" y="560" width="60" height="30" as="geometry" />
        </mxCell>
        <mxCell id="fZF1Yw6p9Kvz5Fr0DQUm-19" value="1" style="text;html=1;strokeColor=none;fillColor=none;align=center;verticalAlign=middle;whiteSpace=wrap;rounded=0;" vertex="1" parent="1">
          <mxGeometry x="320" y="720" width="60" height="30" as="geometry" />
        </mxCell>
        <mxCell id="fZF1Yw6p9Kvz5Fr0DQUm-20" value="1" style="text;html=1;strokeColor=none;fillColor=none;align=center;verticalAlign=middle;whiteSpace=wrap;rounded=0;" vertex="1" parent="1">
          <mxGeometry x="530" y="530" width="60" height="30" as="geometry" />
        </mxCell>
        <mxCell id="fZF1Yw6p9Kvz5Fr0DQUm-23" value="N" style="text;html=1;strokeColor=none;fillColor=none;align=center;verticalAlign=middle;whiteSpace=wrap;rounded=0;" vertex="1" parent="1">
          <mxGeometry x="280" y="605" width="60" height="30" as="geometry" />
        </mxCell>
        <mxCell id="fZF1Yw6p9Kvz5Fr0DQUm-24" value="M" style="text;html=1;strokeColor=none;fillColor=none;align=center;verticalAlign=middle;whiteSpace=wrap;rounded=0;" vertex="1" parent="1">
          <mxGeometry x="390" y="605" width="60" height="30" as="geometry" />
        </mxCell>
        <mxCell id="fZF1Yw6p9Kvz5Fr0DQUm-25" value="N" style="text;html=1;strokeColor=none;fillColor=none;align=center;verticalAlign=middle;whiteSpace=wrap;rounded=0;" vertex="1" parent="1">
          <mxGeometry x="320" y="670" width="60" height="30" as="geometry" />
        </mxCell>
        <mxCell id="fZF1Yw6p9Kvz5Fr0DQUm-31" style="edgeStyle=orthogonalEdgeStyle;rounded=0;orthogonalLoop=1;jettySize=auto;html=1;entryX=1;entryY=0.5;entryDx=0;entryDy=0;endArrow=none;endFill=0;" edge="1" parent="1" source="fZF1Yw6p9Kvz5Fr0DQUm-29" target="fZF1Yw6p9Kvz5Fr0DQUm-11">
          <mxGeometry relative="1" as="geometry" />
        </mxCell>
        <mxCell id="fZF1Yw6p9Kvz5Fr0DQUm-45" style="edgeStyle=orthogonalEdgeStyle;rounded=0;orthogonalLoop=1;jettySize=auto;html=1;entryX=0.5;entryY=1;entryDx=0;entryDy=0;endArrow=none;endFill=0;" edge="1" parent="1" source="fZF1Yw6p9Kvz5Fr0DQUm-29" target="fZF1Yw6p9Kvz5Fr0DQUm-42">
          <mxGeometry relative="1" as="geometry" />
        </mxCell>
        <mxCell id="fZF1Yw6p9Kvz5Fr0DQUm-29" value="PRODUCTO" style="rounded=0;whiteSpace=wrap;html=1;fillColor=#dae8fc;strokeColor=#6c8ebf;" vertex="1" parent="1">
          <mxGeometry x="510" y="720" width="120" height="60" as="geometry" />
        </mxCell>
        <mxCell id="fZF1Yw6p9Kvz5Fr0DQUm-34" value="N" style="text;html=1;strokeColor=none;fillColor=none;align=center;verticalAlign=middle;whiteSpace=wrap;rounded=0;" vertex="1" parent="1">
          <mxGeometry x="460" y="720" width="60" height="30" as="geometry" />
        </mxCell>
        <mxCell id="fZF1Yw6p9Kvz5Fr0DQUm-35" value="N" style="text;html=1;strokeColor=none;fillColor=none;align=center;verticalAlign=middle;whiteSpace=wrap;rounded=0;" vertex="1" parent="1">
          <mxGeometry x="560" y="690" width="60" height="30" as="geometry" />
        </mxCell>
        <mxCell id="fZF1Yw6p9Kvz5Fr0DQUm-36" value="N" style="text;html=1;strokeColor=none;fillColor=none;align=center;verticalAlign=middle;whiteSpace=wrap;rounded=0;" vertex="1" parent="1">
          <mxGeometry x="500" y="440" width="60" height="30" as="geometry" />
        </mxCell>
        <mxCell id="fZF1Yw6p9Kvz5Fr0DQUm-41" value="1" style="text;html=1;strokeColor=none;fillColor=none;align=center;verticalAlign=middle;whiteSpace=wrap;rounded=0;" vertex="1" parent="1">
          <mxGeometry x="430" y="230" width="60" height="30" as="geometry" />
        </mxCell>
        <mxCell id="fZF1Yw6p9Kvz5Fr0DQUm-42" value="PROVEE" style="rhombus;whiteSpace=wrap;html=1;fillColor=#fff2cc;strokeColor=#d6b656;" vertex="1" parent="1">
          <mxGeometry x="530" y="590" width="80" height="50" as="geometry" />
        </mxCell>
        <mxCell id="fZF1Yw6p9Kvz5Fr0DQUm-47" value="SOLICITA" style="rhombus;whiteSpace=wrap;html=1;fillColor=#fff2cc;strokeColor=#d6b656;" vertex="1" parent="1">
          <mxGeometry x="500" y="340" width="80" height="50" as="geometry" />
        </mxCell>
      </root>
    </mxGraphModel>
  </diagram>
</mxfile>
